#!OML:ASF X:\für Bonn\!DataBase\2005_08_10_Bjorn_Final\c3d\bjorn.ASF
:FULLY-SPECIFIED
:DEGREES
79
root 3.03801 19.5236 3.89241 -216.916 -51.1623 -152.044
lowerback 39.0176 -1.29963 -2.44685
upperback 20.2602 -7.47817 -2.37391
thorax 3.36315 -5.88651 0.876417
lowerneck -13.3382 -11.0935 -5.94602
upperneck 0.232509 -18.0839 29.7903
head 6.00257 -8.71291 8.37757
rclavicle 5.08889e-014 3.81667e-014
rhumerus -49.413 -5.60224 -92.5953
rradius 32.0871
rwrist 14.5759
rhand -11.1445 12.7606
rfingers 7.12502
rthumb 14.8813 -16.685
lclavicle 5.08889e-014 3.81667e-014
lhumerus 58.0025 -27.6195 84.82
lradius 115.453
lwrist 2.94366
lhand -43.5909 -28.2485
lfingers 7.12502
lthumb -16.4274 1.07596
rfemur -91.5126 -17.8303 16.0498
rtibia 129.757
rfoot 5.69189 19.619
rtoes -17.9576
lfemur 1.87081 -24.6556 -5.01931
ltibia 18.574
lfoot 4.00267 -23.5565
ltoes 10.5139
80
root 3.05629 19.5161 3.89833 -217.191 -51.3186 -151.631
lowerback 39.4102 -1.17738 -2.38207
upperback 20.3048 -7.35468 -2.17596
thorax 3.31576 -5.84941 1.03138
lowerneck -12.8595 -11.0757 -5.87417
upperneck -0.297074 -17.9917 30.0893
head 5.77349 -8.76495 8.50755
rclavicle -4.45278e-014 -1.49486e-013
rhumerus -49.4033 -5.45445 -92.5679
rradius 31.7423
rwrist 14.3235
rhand -10.8338 12.4803
rfingers 7.12502
rthumb 15.1805 -16.9428
lclavicle -4.45278e-014 -1.49486e-013
lhumerus 58.6912 -27.6769 84.9509
lradius 115.506
lwrist 3.17534
lhand -43.8455 -27.993
lfingers 7.12502
lthumb -16.6725 1.31096
rfemur -92.2257 -17.9596 16.1178
rtibia 129.685
rfoot 5.53369 19.5624
rtoes -17.572
lfemur 1.42536 -25.2557 -4.89149
ltibia 19.0954
lfoot 3.64704 -23.1895
ltoes 10.4919
81
root 3.07178 19.5044 3.9036 -217.376 -51.4498 -151.326
lowerback 39.7602 -1.0285 -2.35605
upperback 20.361 -7.21347 -1.99223
thorax 3.29563 -5.80776 1.18109
lowerneck -12.5631 -11.0478 -5.78912
upperneck -0.631494 -17.928 30.3403
head 5.63412 -8.79677 8.60551
rclavicle 2.54444e-014 3.81667e-014
rhumerus -49.3371 -5.28394 -92.589
rradius 31.3744
rwrist 14.0612
rhand -10.4246 12.2006
rfingers 7.12502
rthumb 15.5747 -17.1923
lclavicle 2.54444e-014 3.81667e-014
lhumerus 59.4601 -27.7123 85.0848
lradius 115.465
lwrist 3.41345
lhand -43.9655 -27.7156
lfingers 7.12502
lthumb -16.788 1.5786
rfemur -92.7641 -17.9922 16.17
rtibia 129.538
rfoot 5.41611 19.4709
rtoes -17.0028
lfemur 0.946598 -25.7461 -4.80499
ltibia 19.7102
lfoot 3.2055 -22.8897
ltoes 10.2474
82
root 3.08631 19.49 3.90791 -217.531 -51.5376 -151.104
lowerback 40.1276 -0.854751 -2.34498
upperback 20.3814 -7.04134 -1.82429
thorax 3.22861 -5.74717 1.3173
lowerneck -12.2436 -11.0211 -5.71784
upperneck -0.884091 -17.8807 30.5923
head 5.51984 -8.82911 8.7052
rclavicle -3.81667e-014 9.54166e-014
rhumerus -49.3361 -5.13841 -92.611
rradius 31.0012
rwrist 13.9608
rhand -9.94919 11.9749
rfingers 7.12502
rthumb 16.0326 -17.3817
lclavicle -3.81667e-014 9.54166e-014
lhumerus 60.1754 -27.8196 85.2918
lradius 115.356
lwrist 3.68808
lhand -43.904 -27.4752
lfingers 7.12502
lthumb -16.7287 1.82404
rfemur -93.1102 -17.8878 16.22
rtibia 129.322
rfoot 5.30051 19.3312
rtoes -16.4642
lfemur 0.509877 -26.1841 -4.76484
ltibia 20.3721
lfoot 2.74693 -22.6157
ltoes 9.88504
83
root 3.09919 19.4734 3.9115 -217.618 -51.6089 -150.934
lowerback 40.4216 -0.697784 -2.31687
upperback 20.3917 -6.87284 -1.6911
thorax 3.16558 -5.68009 1.40624
lowerneck -12.072 -11.0199 -5.70206
upperneck -0.944993 -17.9064 30.83
head 5.50709 -8.8631 8.78855
rclavicle -1.33583e-013 1.90833e-013
rhumerus -49.3365 -5.0319 -92.6585
rradius 30.6011
rwrist 13.9387
rhand -9.40759 11.851
rfingers 7.12502
rthumb 16.5541 -17.4629
lclavicle -1.33583e-013 1.90833e-013
lhumerus 60.8669 -27.9317 85.5039
lradius 115.21
lwrist 4.04301
lhand -43.6998 -27.237
lfingers 7.12502
lthumb -16.5322 2.07871
rfemur -93.3667 -17.7253 16.2815
rtibia 129.06
rfoot 5.2407 19.1834
rtoes -16.4611
lfemur 0.0353339 -26.5215 -4.70888
ltibia 21.0654
lfoot 2.32225 -22.4363
ltoes 9.79161
84
root 3.11042 19.4573 3.91474 -217.614 -51.6534 -150.88
lowerback 40.6328 -0.515009 -2.30667
upperback 20.4253 -6.67958 -1.5736
thorax 3.15056 -5.60324 1.4724
lowerneck -11.9767 -11.0412 -5.80054
upperneck -0.988429 -17.9657 31.1423
head 5.54152 -8.90472 8.90602
rclavicle -6.36111e-014 3.18055e-015
rhumerus -49.3137 -4.86835 -92.7743
rradius 30.2387
rwrist 13.9262
rhand -8.88588 11.7296
rfingers 7.12502
rthumb 17.0563 -17.5416
lclavicle -6.36111e-014 3.18055e-015
lhumerus 61.5842 -28.0855 85.6985
lradius 115.057
lwrist 4.52945
lhand -43.3779 -27.0348
lfingers 7.12502
lthumb -16.2222 2.30649
rfemur -93.5246 -17.4371 16.3096
rtibia 128.757
rfoot 5.20941 18.9635
rtoes -17.4107
lfemur -0.406092 -26.7939 -4.71176
ltibia 21.7454
lfoot 1.88505 -22.2475
ltoes 9.72185
85
root 3.12056 19.4403 3.91738 -217.599 -51.6682 -150.832
lowerback 40.804 -0.350568 -2.26606
upperback 20.4471 -6.49058 -1.47403
thorax 3.12896 -5.52146 1.50474
lowerneck -11.9489 -11.0635 -5.91851
upperneck -0.94706 -18.0412 31.4277
head 5.61554 -8.93853 9.0116
rclavicle -2.22639e-014 5.40694e-014
rhumerus -49.3831 -4.7653 -92.8699
rradius 29.9454
rwrist 14.2228
rhand -8.3793 11.7555
rfingers 7.12502
rthumb 17.5438 -17.4729
lclavicle -2.22639e-014 5.40694e-014
lhumerus 62.2093 -28.2472 85.8812
lradius 114.945
lwrist 5.10932
lhand -43.0044 -26.9004
lfingers 7.12502
lthumb -15.8626 2.46985
rfemur -93.5939 -17.1031 16.3644
rtibia 128.421
rfoot 5.33219 18.7728
rtoes -18.3395
lfemur -0.824458 -27.0303 -4.6894
ltibia 22.3881
lfoot 1.50496 -22.0841
ltoes 9.70401
86
root 3.12855 19.4244 3.9197 -217.507 -51.6706 -150.867
lowerback 40.889 -0.176931 -2.2288
upperback 20.4918 -6.28993 -1.37545
thorax 3.15644 -5.43564 1.52678
lowerneck -11.9403 -11.1278 -6.09634
upperneck -0.940101 -18.1468 31.687
head 5.6914 -8.98601 9.11178
rclavicle 6.99722e-014 -1.27222e-014
rhumerus -49.3933 -4.68303 -92.9594
rradius 29.6188
rwrist 14.6084
rhand -7.96503 11.876
rfingers 7.12502
rthumb 17.9425 -17.3164
lclavicle 6.99722e-014 -1.27222e-014
lhumerus 62.8332 -28.4181 86.0447
lradius 114.878
lwrist 5.71737
lhand -42.6178 -26.7883
lfingers 7.12502
lthumb -15.4903 2.61112
rfemur -93.6008 -16.6976 16.3881
rtibia 128.057
rfoot 5.52202 18.6241
rtoes -19.0572
lfemur -1.2065 -27.1809 -4.69974
ltibia 22.9759
lfoot 1.14981 -21.96
ltoes 9.65209
